<svg xmlns="http://www.w3.org/2000/svg" width="314" height="49" viewBox="0 0 314 49" fill="none">
<g clip-path="url(#clip0_692_535)">
<path d="M22.4029 23.7863L29.7457 31.1192C28.682 32.1294 27.4976 32.9742 26.2311 33.6551L17.9863 25.4214C19.58 25.3704 21.1576 24.825 22.4029 23.7863Z" fill="#00467f"/>
<path d="M25.3282 20.8999L23.6074 22.6183L30.9329 29.9339L32.6536 28.2155L25.3282 20.8999Z" fill="#00467f"/>
<path d="M39.9922 6.25644L38.2715 7.97487L45.5961 15.2896L47.3168 13.5712L39.9922 6.25644Z" fill="#00467f"/>
<path d="M48.5223 12.4042L41.1895 5.08121C42.2681 4.08849 43.45 3.24114 44.7128 2.55406L52.9401 10.7704C51.3414 10.8176 49.7552 11.3792 48.5223 12.4042Z" fill="#00467f"/>
<path d="M70.9057 17.8722C71.259 28.3187 61.3285 37.1774 50.9961 35.6517C47.6955 35.2541 44.5354 33.9011 41.9701 31.7864C39.9173 30.0457 24.5313 14.3909 22.6477 12.6291C21.5193 11.609 20.0649 10.9567 18.5508 10.7965C18.5483 10.7965 18.5446 10.794 18.5396 10.7965C14.0882 10.2684 10.2775 13.9051 10.3869 18.3357C10.418 21.2467 12.4298 24.0149 15.1755 24.9852L24.6184 34.4154C7.73823 41.0054 -6.94109 22.3599 3.4933 7.62076C8.71112 0.185935 19.4541 -1.83678 27.1875 3.12681C27.19 3.12681 27.1925 3.12681 27.1949 3.13178C28.3059 3.83253 29.3298 4.65876 30.2604 5.58687C31.3428 6.53486 47.9841 23.5838 49.1809 24.2559C49.1809 24.2559 49.1834 24.2584 49.1847 24.2584C49.2033 24.2721 49.2232 24.2845 49.2431 24.2957C50.0904 24.8424 51.0583 25.1989 52.0536 25.3543H52.0598C55.1987 25.8686 58.3911 24.2211 59.7609 21.3511C60.7338 19.388 60.8209 17.0311 59.8803 15.0233C59.8791 15.0171 59.8766 15.0121 59.8741 15.0071C59.0555 13.2826 57.5663 11.8463 55.7524 11.2077L46.3133 1.78124C57.7355 -3.14259 70.8584 5.4738 70.9057 17.8722Z" fill="#00467f"/>
</g>
<path d="M100.935 37.44C97.3157 37.44 94.2086 36.6728 91.6136 35.1384C89.0187 33.5698 87.0212 31.4046 85.6213 28.6426C84.2214 25.8466 83.5215 22.6243 83.5215 18.9757C83.5215 15.3272 84.2214 12.1049 85.6213 9.30885C87.0212 6.51279 89.0187 4.33049 91.6136 2.76197C94.2086 1.19344 97.3157 0.409181 100.935 0.409181C105.237 0.409181 108.754 1.48328 111.485 3.63147C114.251 5.74557 115.975 8.72918 116.658 12.5823H109.437C108.993 10.6387 108.037 9.12131 106.569 8.03016C105.135 6.90492 103.223 6.3423 100.833 6.3423C97.5205 6.3423 94.9256 7.46754 93.0477 9.71803C91.1698 11.9685 90.2308 15.0544 90.2308 18.9757C90.2308 22.8971 91.1698 25.983 93.0477 28.2334C94.9256 30.4498 97.5205 31.558 100.833 31.558C103.223 31.558 105.135 31.0466 106.569 30.0236C108.037 28.9666 108.993 27.5174 109.437 25.6761H116.658C115.975 29.3587 114.251 32.24 111.485 34.32C108.754 36.4 105.237 37.44 100.935 37.44Z" fill="#00467f"/>
<path d="M119.747 36.8262V0H126.303V36.8262H119.747Z" fill="#00467f"/>
<path d="M142.63 37.44C140.171 37.44 137.952 36.8774 135.972 35.7521C134.025 34.6269 132.472 33.0754 131.311 31.0977C130.184 29.0859 129.621 26.7672 129.621 24.1416C129.621 21.5161 130.201 19.2144 131.362 17.2367C132.523 15.2249 134.077 13.6564 136.023 12.5311C138.003 11.4059 140.222 10.8433 142.681 10.8433C145.105 10.8433 147.29 11.4059 149.237 12.5311C151.217 13.6564 152.77 15.2249 153.897 17.2367C155.058 19.2144 155.639 21.5161 155.639 24.1416C155.639 26.7672 155.058 29.0859 153.897 31.0977C152.77 33.0754 151.217 34.6269 149.237 35.7521C147.256 36.8774 145.054 37.44 142.63 37.44ZM142.63 31.7626C144.337 31.7626 145.822 31.1318 147.085 29.8702C148.349 28.5744 148.98 26.6649 148.98 24.1416C148.98 21.6184 148.349 19.7259 147.085 18.4643C145.822 17.1685 144.354 16.5207 142.681 16.5207C140.94 16.5207 139.437 17.1685 138.174 18.4643C136.945 19.7259 136.33 21.6184 136.33 24.1416C136.33 26.6649 136.945 28.5744 138.174 29.8702C139.437 31.1318 140.922 31.7626 142.63 31.7626Z" fill="#00467f"/>
<path d="M168.465 37.44C165.29 37.44 162.832 36.4511 161.09 34.4734C159.383 32.4957 158.529 29.5974 158.529 25.7784V11.4571H165.034V25.1646C165.034 27.3469 165.478 29.0177 166.365 30.1771C167.253 31.3364 168.653 31.9161 170.565 31.9161C172.375 31.9161 173.86 31.2682 175.021 29.9725C176.216 28.6767 176.814 26.8695 176.814 24.5508V11.4571H183.369V36.8262H177.582L177.07 32.5298C176.284 34.0302 175.141 35.2236 173.638 36.1102C172.17 36.9967 170.446 37.44 168.465 37.44Z" fill="#00467f"/>
<path d="M199.215 37.44C196.825 37.44 194.691 36.8603 192.813 35.701C190.935 34.5416 189.45 32.9561 188.358 30.9443C187.265 28.9325 186.719 26.6479 186.719 24.0905C186.719 21.5331 187.265 19.2656 188.358 17.2879C189.45 15.2761 190.935 13.7075 192.813 12.5823C194.691 11.423 196.825 10.8433 199.215 10.8433C201.127 10.8433 202.801 11.2013 204.235 11.9174C205.669 12.6334 206.83 13.6393 207.717 14.9351V0H214.273V36.8262H208.434L207.717 33.1948C206.898 34.32 205.805 35.3089 204.439 36.1613C203.108 37.0138 201.366 37.44 199.215 37.44ZM200.598 31.7115C202.715 31.7115 204.439 31.0125 205.771 29.6144C207.137 28.1823 207.82 26.358 207.82 24.1416C207.82 21.9252 207.137 20.118 205.771 18.72C204.439 17.2879 202.715 16.5718 200.598 16.5718C198.515 16.5718 196.791 17.2708 195.425 18.6689C194.06 20.0669 193.377 21.8741 193.377 24.0905C193.377 26.3069 194.06 28.1311 195.425 29.5633C196.791 30.9954 198.515 31.7115 200.598 31.7115Z" fill="#00467f"/>
<path d="M218.388 36.8262V0H224.943V36.8262H218.388Z" fill="#00467f"/>
<path d="M241.271 37.44C238.812 37.44 236.593 36.8774 234.613 35.7521C232.666 34.6269 231.113 33.0754 229.952 31.0977C228.825 29.0859 228.262 26.7672 228.262 24.1416C228.262 21.5161 228.842 19.2144 230.003 17.2367C231.164 15.2249 232.718 13.6564 234.664 12.5311C236.644 11.4059 238.863 10.8433 241.322 10.8433C243.746 10.8433 245.931 11.4059 247.877 12.5311C249.858 13.6564 251.411 15.2249 252.538 17.2367C253.699 19.2144 254.279 21.5161 254.279 24.1416C254.279 26.7672 253.699 29.0859 252.538 31.0977C251.411 33.0754 249.858 34.6269 247.877 35.7521C245.897 36.8774 243.695 37.44 241.271 37.44ZM241.271 31.7626C242.978 31.7626 244.463 31.1318 245.726 29.8702C246.99 28.5744 247.621 26.6649 247.621 24.1416C247.621 21.6184 246.99 19.7259 245.726 18.4643C244.463 17.1685 242.995 16.5207 241.322 16.5207C239.58 16.5207 238.078 17.1685 236.815 18.4643C235.586 19.7259 234.971 21.6184 234.971 24.1416C234.971 26.6649 235.586 28.5744 236.815 29.8702C238.078 31.1318 239.563 31.7626 241.271 31.7626Z" fill="#00467f"/>
<path d="M269.77 37.44C267.311 37.44 265.092 36.8774 263.111 35.7521C261.165 34.6269 259.612 33.0754 258.451 31.0977C257.324 29.0859 256.761 26.7672 256.761 24.1416C256.761 21.5161 257.341 19.2144 258.502 17.2367C259.663 15.2249 261.216 13.6564 263.163 12.5311C265.143 11.4059 267.362 10.8433 269.821 10.8433C272.245 10.8433 274.43 11.4059 276.376 12.5311C278.357 13.6564 279.91 15.2249 281.037 17.2367C282.198 19.2144 282.778 21.5161 282.778 24.1416C282.778 26.7672 282.198 29.0859 281.037 31.0977C279.91 33.0754 278.357 34.6269 276.376 35.7521C274.396 36.8774 272.194 37.44 269.77 37.44ZM269.77 31.7626C271.477 31.7626 272.962 31.1318 274.225 29.8702C275.489 28.5744 276.12 26.6649 276.12 24.1416C276.12 21.6184 275.489 19.7259 274.225 18.4643C272.962 17.1685 271.494 16.5207 269.821 16.5207C268.079 16.5207 266.577 17.1685 265.314 18.4643C264.085 19.7259 263.47 21.6184 263.47 24.1416C263.47 26.6649 264.085 28.5744 265.314 29.8702C266.577 31.1318 268.062 31.7626 269.77 31.7626Z" fill="#00467f"/>
<path d="M286.079 48.0787V11.4571H291.918L292.635 15.0885C293.454 13.9633 294.53 12.9744 295.861 12.122C297.227 11.2695 298.986 10.8433 301.137 10.8433C303.527 10.8433 305.661 11.423 307.539 12.5823C309.417 13.7416 310.902 15.3272 311.994 17.339C313.087 19.3508 313.633 21.6354 313.633 24.1928C313.633 26.7502 313.087 29.0348 311.994 31.0466C310.902 33.0243 309.417 34.5928 307.539 35.7521C305.661 36.8774 303.527 37.44 301.137 37.44C299.225 37.44 297.551 37.082 296.117 36.3659C294.683 35.6498 293.522 34.6439 292.635 33.3482V48.0787H286.079ZM299.754 31.7115C301.837 31.7115 303.561 31.0125 304.927 29.6144C306.292 28.2164 306.975 26.4092 306.975 24.1928C306.975 21.9764 306.292 20.1521 304.927 18.72C303.561 17.2879 301.837 16.5718 299.754 16.5718C297.637 16.5718 295.896 17.2879 294.53 18.72C293.198 20.118 292.532 21.9252 292.532 24.1416C292.532 26.358 293.198 28.1823 294.53 29.6144C295.896 31.0125 297.637 31.7115 299.754 31.7115Z" fill="#00467f"/>
<defs fill="#03a9f4">
<clipPath id="clip0_692_535" fill="#03a9f4">
<rect width="70.9146" height="47.2131" fill="#00467f" transform="translate(0 0.39344)"/>
</clipPath>
</defs>
</svg>